<svg width="434" height="137" viewBox="0 0 434 137" fill="none" xmlns="http://www.w3.org/2000/svg">
<path style="mix-blend-mode:multiply" opacity="0.15" d="M434 109.65C434 124.761 344.904 137 235 137C125.096 137 36 124.75 36 109.65C36 94.5498 116.452 85 226.365 85C336.277 85 434 94.5397 434 109.65Z" fill="url(#paint0_radial_681_4224)"/>
<path d="M49 26.0909C49 15.5473 56.1672 7 65.0083 7H417.992C426.833 7 434 15.5473 434 26.0909V92.9091C434 103.453 426.833 112 417.992 112H65.0083C56.1672 112 49 103.453 49 92.9091V26.0909Z" fill="url(#paint1_linear_681_4224)"/>
<path d="M30.3166 84.5742L24.5174 84.8538L13.2737 116.781C12.9155 117.798 13.7492 118.838 14.8328 118.726L30.5932 117.095C31.0334 117.049 31.4711 117.2 31.7877 117.505L43.1173 128.456C43.8962 129.209 45.203 128.905 45.561 127.888L56.878 95.7521L53.541 92.5511L30.3166 84.5742Z" fill="#D79E4D"/>
<path d="M51.5408 111.768L53.8603 105.257L21.0294 94.3472L18.7168 100.839C28.0395 107.34 39.3277 111.319 51.5408 111.768Z" fill="#CD994E"/>
<path d="M77.2247 84.5742L83.1069 84.8546L94.5116 116.872C94.875 117.891 94.0293 118.934 92.9301 118.822L76.9441 117.186C76.4976 117.14 76.0536 117.291 75.7328 117.598L64.2409 128.579C63.4509 129.334 62.1254 129.03 61.7623 128.01L50.2832 95.7836L53.668 92.5735L77.2247 84.5742Z" fill="#D79E4D"/>
<path d="M56.1809 111.768L53.8613 105.257L86.6923 94.3472L89.0049 100.839C79.6821 107.34 68.394 111.319 56.1809 111.768Z" fill="#CD994E"/>
<path d="M53.8569 101.975C-0.00221944 101.975 0.0203868 50.854 0.0650153 49.9753C1.47893 22.1423 25.0217 0 53.8569 0C82.6922 0 106.235 22.1423 107.649 49.9756C107.693 50.8543 107.716 101.975 53.8569 101.975Z" fill="#FFE27A"/>
<path d="M53.8591 99.9492C25.0239 99.9492 1.48202 77.8069 0.0678126 49.9736C0.023184 50.8523 0 51.7367 0 52.6261C0 81.6917 24.1136 105.254 53.8591 105.254C83.6047 105.254 107.718 81.6917 107.718 52.6261C107.718 51.7364 107.695 50.8523 107.65 49.9736C106.236 77.8069 82.6944 99.9492 53.8591 99.9492Z" fill="#F9CF58"/>
<path d="M53.8596 90.6508C11.5155 90.6508 11.4587 49.9641 11.5155 49.0868C12.9155 27.4253 31.3384 10.2798 53.8596 10.2798C76.3808 10.2798 94.8037 27.4253 96.2037 49.0868C96.2605 49.9638 96.2037 90.6508 53.8596 90.6508Z" fill="#FFBA57"/>
<path d="M53.8593 88.7809C31.3384 88.7809 12.9187 71.6349 11.5187 49.9736C11.4619 50.8509 11.4297 51.735 11.4297 52.6261C11.4297 75.5237 30.4261 94.0859 53.8593 94.0859C77.2925 94.0859 96.2889 75.5237 96.2889 52.6261C96.2889 51.7347 96.2567 50.8509 96.1999 49.9736C94.7999 71.6349 76.3802 88.7809 53.8593 88.7809Z" fill="#FFAC3E"/>
<path d="M56.2766 77.254C53.3308 77.254 50.9426 74.9207 50.9426 72.0419V69.2853V42.8325C50.9426 42.8325 47.7511 45.9601 43.9324 44.0835C40.9551 42.6204 40.9551 38.8545 40.9551 38.8545L47.5314 28.0073C48.4918 26.4232 50.2364 25.4517 52.1206 25.4517H56.2766C59.2224 25.4517 61.6106 27.785 61.6106 30.6637V69.2853V72.0419C61.6106 74.9207 59.2224 77.254 56.2766 77.254Z" fill="#FFE27A"/>
<path d="M50.2087 38.7374C48.793 41.0727 45.7829 42.0854 43.2724 40.9229C42.2564 40.4526 41.4731 39.7217 40.9523 38.8586C39.4712 41.3069 40.273 44.4566 42.7392 45.9447C45.2825 47.4795 48.6809 46.5632 50.2041 44.05L50.9419 42.8326V38.9331C50.9419 38.5417 50.413 38.4004 50.2087 38.7374Z" fill="#F9CF58"/>
<path d="M56.2793 74.4992C53.3335 74.4992 50.9453 72.1658 50.9453 69.2871V74.5923C50.9453 77.4711 53.3335 79.8044 56.2793 79.8044C59.2251 79.8044 61.6133 77.4711 61.6133 74.5923V69.2871C61.6133 72.1658 59.2251 74.4992 56.2793 74.4992Z" fill="#F9CF58"/>
<path d="M123 38.1232H128.341V42.0044H128.549C128.744 41.4419 129.022 40.8935 129.384 40.3591C129.745 39.8247 130.19 39.3607 130.719 38.9669C131.275 38.5451 131.915 38.2216 132.638 37.9966C133.389 37.7435 134.265 37.617 135.267 37.617C137.715 37.617 139.592 38.4044 140.899 39.9794C142.207 41.5544 142.86 43.8044 142.86 46.7293V61.4104H137.52V47.2356C137.52 45.5481 137.172 44.2684 136.477 43.3966C135.781 42.4966 134.669 42.0466 133.139 42.0466C132.555 42.0466 131.971 42.131 131.386 42.2997C130.802 42.4685 130.288 42.7216 129.843 43.0591C129.398 43.3966 129.036 43.8184 128.758 44.3247C128.48 44.8028 128.341 45.3653 128.341 46.0122V61.4104H123V38.1232Z" fill="#F7F8FC"/>
<path d="M124.244 30.192H137.971V26.6905H142.852V34.2842H124.244V30.192Z" fill="#F7F8FC"/>
<path d="M138.304 18H142.852V24.6234H138.304V18Z" fill="#F7F8FC"/>
<path d="M159.362 61.4104V56.8964H167.373V35.9717H166.997L160.655 43.5653L157.234 40.6544L164.452 31.9639H172.755V56.8964H179.431V61.4104H159.362Z" fill="#F7F8FC"/>
<path d="M202.251 61.9167C200.832 61.9167 199.539 61.7479 198.371 61.4104C197.202 61.0729 196.201 60.5667 195.367 59.8917C194.532 59.1886 193.878 58.3167 193.406 57.2761C192.961 56.2074 192.738 54.9699 192.738 53.5636C192.738 52.7761 192.794 52.0871 192.905 51.4965C193.044 50.8777 193.197 50.3293 193.364 49.8512C193.559 49.3731 193.767 48.9371 193.99 48.5434C194.24 48.1496 194.49 47.77 194.741 47.4043C195.158 46.7575 195.547 46.0684 195.909 45.3372C196.271 44.6059 196.451 43.8747 196.451 43.1434V42.595H192.446V38.1232H197.161C198.579 38.1232 199.664 38.4607 200.415 39.1357C201.166 39.8107 201.542 40.7107 201.542 41.8357V42.0466C201.542 42.9184 201.403 43.7763 201.124 44.62C200.846 45.4637 200.415 46.434 199.831 47.5309C199.386 48.3746 199.024 49.1621 198.746 49.8934C198.468 50.5965 198.329 51.4402 198.329 52.4246V53.648C198.329 54.9136 198.663 55.8699 199.33 56.5167C200.026 57.1355 200.958 57.4448 202.126 57.4448C203.378 57.4448 204.337 57.0933 205.005 56.3902C205.7 55.687 206.048 54.6886 206.048 53.3949V38.1232H211.388V52.8465C211.388 55.6589 210.582 57.8808 208.969 59.512C207.383 61.1151 205.144 61.9167 202.251 61.9167Z" fill="#F7F8FC"/>
<path d="M226.015 61.9167C224.568 61.9167 223.233 61.7198 222.009 61.326C220.785 60.9042 219.728 60.3417 218.838 59.6386C217.948 58.9073 217.253 58.0495 216.752 57.0652C216.251 56.0527 216.001 54.9417 216.001 53.7324V51.623C216.001 50.5543 216.265 49.7246 216.794 49.134C217.35 48.5153 218.226 48.2059 219.422 48.2059H224.262V52.298H220.883V53.3105C220.883 54.773 221.355 55.8839 222.301 56.6433C223.247 57.3745 224.554 57.7401 226.223 57.7401C227.836 57.7401 229.088 57.2058 229.978 56.137C230.868 55.0683 231.313 53.5918 231.313 51.7074V47.9528C231.313 46.0684 230.813 44.6059 229.811 43.5653C228.81 42.4966 227.405 41.9622 225.597 41.9622C223.984 41.9622 222.593 42.3138 221.425 43.0169C220.285 43.72 219.436 44.4934 218.88 45.3372L215.625 42.3841C216.432 41.0341 217.684 39.9091 219.38 39.0091C221.105 38.081 223.247 37.617 225.806 37.617C227.558 37.617 229.116 37.8982 230.479 38.4607C231.842 38.9951 232.996 39.7966 233.942 40.8653C234.916 41.906 235.653 43.1856 236.153 44.7044C236.654 46.195 236.904 47.8825 236.904 49.7668C236.904 53.5636 235.959 56.5448 234.067 58.7104C232.176 60.8479 229.492 61.9167 226.015 61.9167Z" fill="#F7F8FC"/>
<path d="M239.559 44.7044H244.858L250.199 57.1073H250.366C251.562 57.1073 252.494 56.6292 253.161 55.673C253.829 54.7167 254.163 53.3808 254.163 51.6652V47.9106C254.163 46.195 253.829 44.8591 253.161 43.9028C252.494 42.9466 251.562 42.4685 250.366 42.4685H248.739V38.1232H250.408C253.356 38.1232 255.651 39.1497 257.292 41.2028C258.933 43.2278 259.754 46.0825 259.754 49.7668C259.754 53.4511 258.933 56.3199 257.292 58.373C255.651 60.3979 253.356 61.4104 250.408 61.4104H246.778L239.559 44.7044Z" fill="#F7F8FC"/>
<path d="M274.601 61.9167C273.043 61.9167 271.639 61.7057 270.387 61.2839C269.135 60.8339 268.064 60.2011 267.174 59.3854C266.312 58.5698 265.644 57.5855 265.171 56.4324C264.726 55.2792 264.504 53.9855 264.504 52.5511V38.1232H269.845V52.2558C269.845 53.9433 270.262 55.2511 271.096 56.1792C271.931 57.1073 273.099 57.5714 274.601 57.5714C276.103 57.5714 277.271 57.1073 278.106 56.1792C278.94 55.2511 279.357 53.9433 279.357 52.2558V30.192H284.698V52.5511C284.698 53.9855 284.462 55.2792 283.989 56.4324C283.544 57.5855 282.876 58.5698 281.986 59.3854C281.124 60.2011 280.067 60.8339 278.815 61.2839C277.563 61.7057 276.159 61.9167 274.601 61.9167Z" fill="#F7F8FC"/>
<path d="M298.931 61.9167C296.761 61.9167 294.911 61.551 293.382 60.8198C291.879 60.0886 290.558 59.0479 289.418 57.698L292.714 54.5339C293.521 55.5183 294.466 56.2917 295.551 56.8542C296.636 57.3886 297.86 57.6558 299.223 57.6558C300.641 57.6558 301.657 57.4167 302.269 56.9386C302.908 56.4605 303.228 55.7995 303.228 54.9558C303.228 54.1121 302.978 53.4933 302.477 53.0996C301.977 52.6777 301.226 52.3965 300.224 52.2558L297.971 51.9605C296.831 51.8199 295.788 51.5808 294.842 51.2433C293.896 50.9059 293.076 50.4559 292.38 49.8934C291.713 49.3309 291.184 48.6418 290.795 47.8262C290.433 47.0106 290.252 46.0543 290.252 44.9575C290.252 43.8325 290.461 42.82 290.878 41.92C291.323 40.9919 291.921 40.2185 292.672 39.5997C293.451 38.9529 294.369 38.4607 295.426 38.1232C296.511 37.7857 297.707 37.617 299.014 37.617C301.156 37.617 302.908 37.9404 304.271 38.5873C305.634 39.2341 306.858 40.12 307.943 41.245L304.772 44.4512C304.132 43.72 303.312 43.1153 302.31 42.6372C301.309 42.131 300.224 41.8778 299.056 41.8778C297.804 41.8778 296.872 42.131 296.26 42.6372C295.676 43.1153 295.384 43.7622 295.384 44.5778C295.384 45.3934 295.635 46.0262 296.135 46.4762C296.664 46.8981 297.512 47.1934 298.68 47.3621L300.933 47.6996C303.214 48.0371 305.022 48.7121 306.358 49.7246C307.693 50.7371 308.36 52.3261 308.36 54.4917C308.36 55.5886 308.138 56.6011 307.693 57.5292C307.248 58.4292 306.608 59.2026 305.773 59.8495C304.967 60.4964 303.979 61.0026 302.811 61.3682C301.643 61.7338 300.349 61.9167 298.931 61.9167Z" fill="#F7F8FC"/>
<path d="M317.952 57.8245C316.367 57.8245 315.171 57.4448 314.364 56.6855C313.558 55.9261 313.154 54.8433 313.154 53.4371V51.0324H317.786V53.3527H324.545V57.8245H317.952ZM317.952 47.32C316.367 47.32 315.171 46.9403 314.364 46.1809C313.558 45.4215 313.154 44.3387 313.154 42.9325V40.5279H317.786V42.8481H324.545V47.32H317.952Z" fill="#F7F8FC"/>
<path d="M336.61 61.4104C334.775 61.4104 333.426 60.9464 332.563 60.0182C331.701 59.0901 331.27 57.7823 331.27 56.0949V38.1232H336.61V57.1073H339.656V61.4104H336.61Z" fill="#F7F8FC"/>
<path d="M343.964 38.1232H349.304V42.0044H349.513C349.708 41.4419 349.986 40.8935 350.348 40.3591C350.709 39.8247 351.154 39.3607 351.683 38.9669C352.239 38.5451 352.879 38.2216 353.602 37.9966C354.353 37.7435 355.229 37.617 356.231 37.617C358.678 37.617 360.556 38.4044 361.863 39.9794C363.171 41.5544 363.824 43.8044 363.824 46.7293V61.4104H358.484V47.2356C358.484 45.5481 358.136 44.2684 357.441 43.3966C356.745 42.4966 355.633 42.0466 354.103 42.0466C353.519 42.0466 352.934 42.131 352.35 42.2997C351.766 42.4685 351.252 42.7216 350.807 43.0591C350.361 43.3966 350 43.8184 349.722 44.3247C349.444 44.8028 349.304 45.3653 349.304 46.0122V61.4104H343.964V38.1232Z" fill="#F7F8FC"/>
<path d="M369.506 47.32C369.506 45.8575 369.756 44.5356 370.257 43.3544C370.757 42.145 371.48 41.1185 372.426 40.2747C373.372 39.431 374.512 38.7841 375.848 38.3341C377.21 37.856 378.74 37.617 380.437 37.617C381.856 37.617 383.149 37.7857 384.317 38.1232C385.486 38.4326 386.515 38.8826 387.405 39.4732C387.683 37.8138 388.754 36.9841 390.618 36.9841H396V41.456H389.616V41.6669C390.173 42.4263 390.604 43.27 390.91 44.1981C391.216 45.1262 391.369 46.1668 391.369 47.32V61.4104H386.028V47.6153C386.028 45.8153 385.527 44.4231 384.526 43.4388C383.552 42.4544 382.19 41.9622 380.437 41.9622C378.685 41.9622 377.308 42.4544 376.306 43.4388C375.333 44.4231 374.846 45.8153 374.846 47.6153V52.7621H375.055C375.194 52.1715 375.402 51.609 375.681 51.0746C375.987 50.5121 376.376 50.0199 376.849 49.5981C377.322 49.1762 377.878 48.8387 378.518 48.5856C379.185 48.3043 379.95 48.1637 380.813 48.1637H381.981V53.2683H380.312C378.532 53.2683 377.169 53.5496 376.223 54.1121C375.305 54.6464 374.846 55.5464 374.846 56.812V61.4104H369.506V47.32Z" fill="#F7F8FC"/>
<path d="M124.862 90.7579C124.303 90.7579 123.877 90.6032 123.585 90.2938C123.305 89.9845 123.166 89.5742 123.166 89.0631V79.7416H124.762V89.3455H126.438V90.7579H124.862Z" fill="#F7F8FC"/>
<path d="M133.011 91C131.495 91 130.337 90.4956 129.539 89.4868C128.754 88.4645 128.362 87.0387 128.362 85.2094C128.362 83.407 128.628 82.0081 129.16 81.0127C129.692 80.0039 130.524 79.4995 131.655 79.4995C132.16 79.4995 132.612 79.634 133.011 79.903C133.424 80.172 133.697 80.5688 133.83 81.0934H133.909C134.056 80.5688 134.328 80.172 134.728 79.903C135.14 79.634 135.606 79.4995 136.124 79.4995C136.923 79.4995 137.535 79.755 137.96 80.2662C138.399 80.7773 138.619 81.4902 138.619 82.4049V90.7579H137.022V82.425C137.022 81.9005 136.909 81.5171 136.683 81.275C136.47 81.0194 136.164 80.8916 135.765 80.8916C135.526 80.8916 135.32 80.9387 135.147 81.0329C134.974 81.1136 134.834 81.2346 134.728 81.396C134.621 81.544 134.535 81.7189 134.468 81.9206C134.402 82.1089 134.355 82.304 134.328 82.5057H133.291C133.264 82.304 133.224 82.1089 133.171 81.9206C133.118 81.7323 133.038 81.5642 132.932 81.4162C132.825 81.2548 132.686 81.127 132.513 81.0329C132.34 80.9387 132.127 80.8916 131.874 80.8916C131.528 80.8916 131.242 80.9791 131.016 81.1539C130.79 81.3288 130.604 81.5709 130.457 81.8803C130.324 82.1896 130.224 82.5595 130.158 82.99C130.105 83.407 130.078 83.8643 130.078 84.362V85.9761C130.078 87.0925 130.331 87.9803 130.836 88.6394C131.355 89.285 132.173 89.6078 133.291 89.6078C133.437 89.6078 133.59 89.6011 133.75 89.5877C133.923 89.5742 134.089 89.554 134.249 89.5271L134.448 90.8789C134.195 90.9327 133.943 90.9664 133.69 90.9798C133.45 90.9933 133.224 91 133.011 91Z" fill="#F7F8FC"/>
<path d="M145.649 91C144.651 91 143.8 90.8184 143.095 90.4552C142.389 90.0921 141.797 89.5809 141.319 88.9218L142.456 87.9937C142.868 88.5587 143.341 88.9756 143.873 89.2447C144.418 89.5002 145.05 89.628 145.768 89.628C146.567 89.628 147.172 89.4733 147.584 89.1639C148.01 88.8546 148.223 88.3972 148.223 87.792C148.223 87.2808 148.057 86.884 147.724 86.6015C147.405 86.3056 146.886 86.1039 146.168 85.9963L145.23 85.855C144.804 85.7878 144.385 85.6936 143.973 85.5726C143.56 85.4515 143.181 85.2766 142.835 85.048C142.503 84.8193 142.23 84.5167 142.017 84.14C141.817 83.7634 141.718 83.2926 141.718 82.7277C141.718 82.2031 141.811 81.739 141.997 81.3355C142.197 80.932 142.469 80.5957 142.815 80.3267C143.174 80.0577 143.593 79.8559 144.072 79.7214C144.551 79.5734 145.07 79.4995 145.629 79.4995C146.573 79.4995 147.358 79.6609 147.983 79.9837C148.622 80.2931 149.154 80.7033 149.58 81.2145L148.562 82.1829C148.269 81.8332 147.877 81.5306 147.385 81.275C146.893 81.006 146.294 80.8715 145.589 80.8715C144.844 80.8715 144.272 81.0261 143.873 81.3355C143.474 81.6449 143.274 82.0753 143.274 82.6268C143.274 83.2186 143.467 83.6356 143.853 83.8777C144.239 84.1199 144.771 84.2947 145.449 84.4023L146.387 84.5436C146.879 84.6243 147.332 84.7319 147.744 84.8664C148.156 85.0009 148.509 85.1892 148.802 85.4313C149.108 85.6734 149.347 85.9761 149.52 86.3393C149.693 86.689 149.779 87.1194 149.779 87.6305C149.779 88.6797 149.407 89.507 148.662 90.1122C147.93 90.7041 146.926 91 145.649 91Z" fill="#F7F8FC"/>
<path d="M141.628 76.1905H148.213V74.7177H149.77V77.5827H141.628V76.1905Z" fill="#F7F8FC"/>
<path d="M156.509 91C155.178 91 154.141 90.7108 153.396 90.1324C152.664 89.554 152.298 88.7402 152.298 87.6911C152.298 87.0185 152.491 86.467 152.877 86.0366C153.263 85.5927 153.748 85.2901 154.334 85.1287V85.0278C153.682 84.8798 153.163 84.5772 152.777 84.1199C152.405 83.6491 152.218 83.064 152.218 82.3645C152.218 81.5036 152.478 80.8109 152.997 80.2863C153.529 79.7618 154.26 79.4995 155.192 79.4995C155.471 79.4995 155.757 79.5264 156.05 79.5802C156.356 79.6205 156.635 79.708 156.888 79.8425L156.549 81.0732C156.176 80.9253 155.824 80.8513 155.491 80.8513C154.906 80.8513 154.46 81.0127 154.154 81.3355C153.861 81.6449 153.715 82.0484 153.715 82.5461C153.715 82.7613 153.742 82.9765 153.795 83.1917C153.848 83.407 153.948 83.602 154.094 83.7769C154.24 83.9383 154.44 84.0728 154.693 84.1804C154.959 84.288 155.305 84.3418 155.73 84.3418H156.888V85.4919H155.73C155.225 85.4919 154.799 85.6398 154.453 85.9357C154.121 86.2317 153.954 86.6621 153.954 87.227V87.7314C153.954 88.3367 154.174 88.8075 154.613 89.1438C155.052 89.4666 155.684 89.628 156.509 89.628C157.48 89.628 158.238 89.3792 158.783 88.8815C159.342 88.3703 159.622 87.6373 159.622 86.6823V79.7416H161.218V86.9244C161.218 87.5431 161.105 88.108 160.879 88.6192C160.666 89.1169 160.353 89.5406 159.941 89.8903C159.528 90.24 159.03 90.5158 158.444 90.7175C157.872 90.9058 157.227 91 156.509 91Z" fill="#F7F8FC"/>
<path d="M169.352 91C168.886 91 168.48 90.9395 168.134 90.8184C167.789 90.7108 167.489 90.5628 167.236 90.3745C166.984 90.1862 166.771 89.971 166.598 89.7289C166.438 89.4868 166.305 89.2312 166.199 88.9622H166.099V90.7579H164.503V79.7416H166.099V87.3682C166.099 87.7449 166.179 88.0744 166.339 88.3569C166.498 88.6394 166.704 88.8748 166.957 89.0631C167.223 89.2514 167.516 89.3926 167.835 89.4868C168.168 89.5809 168.507 89.628 168.853 89.628C169.731 89.628 170.389 89.3724 170.828 88.8613C171.281 88.3367 171.507 87.57 171.507 86.5612V79.7416H173.103V86.763C173.103 88.1215 172.771 89.1707 172.105 89.9105C171.44 90.6368 170.522 91 169.352 91Z" fill="#F7F8FC"/>
<path d="M179.583 90.9596C178.478 90.9596 177.6 90.6839 176.949 90.1324C176.297 89.5809 175.971 88.7806 175.971 87.7314C175.971 86.7092 176.29 85.9223 176.929 85.3708C177.58 84.8193 178.465 84.5436 179.583 84.5436H183.055V83.4944C183.055 81.7592 182.117 80.8916 180.241 80.8916C179.443 80.8916 178.771 81.0598 178.226 81.396C177.694 81.7189 177.261 82.1695 176.929 82.7479L175.911 81.8399C176.257 81.1808 176.789 80.6293 177.507 80.1855C178.226 79.7281 179.164 79.4995 180.321 79.4995C181.465 79.4995 182.39 79.7416 183.095 80.2258C183.148 79.5264 183.52 79.1766 184.212 79.1766H186.866V80.6697H183.653C184.318 81.3422 184.651 82.2569 184.651 83.4137V90.7579H183.055V85.6936H179.942C179.223 85.6936 178.665 85.8483 178.266 86.1577C177.866 86.467 177.667 86.9042 177.667 87.4691V87.9332C177.667 88.5385 177.846 89.0025 178.206 89.3254C178.578 89.6347 179.077 89.7894 179.702 89.7894C179.889 89.7894 180.042 89.7827 180.161 89.7692C180.294 89.7558 180.401 89.7423 180.481 89.7289L180.62 90.8386C180.54 90.8789 180.387 90.9058 180.161 90.9193C179.948 90.9462 179.756 90.9596 179.583 90.9596Z" fill="#F7F8FC"/>
<path d="M193.013 91C192.374 91 191.776 90.9058 191.217 90.7175C190.658 90.5292 190.173 90.2602 189.76 89.9105C189.348 89.5473 189.022 89.1236 188.783 88.6394C188.543 88.1417 188.423 87.5902 188.423 86.9849V85.9559C188.423 85.5524 188.503 85.243 188.663 85.0278C188.823 84.7991 189.162 84.6848 189.681 84.6848H191.796V86.077H190.04V86.9042C190.04 87.375 190.113 87.7852 190.259 88.135C190.419 88.4847 190.632 88.7739 190.898 89.0025C191.164 89.2178 191.483 89.3792 191.856 89.4868C192.241 89.5944 192.654 89.6482 193.093 89.6482C194.091 89.6482 194.869 89.3388 195.428 88.7201C195.986 88.1013 196.266 87.2337 196.266 86.1173V84.4629C196.266 83.333 195.96 82.4587 195.348 81.8399C194.749 81.2077 193.911 80.8916 192.833 80.8916C192.009 80.8916 191.297 81.0598 190.698 81.396C190.1 81.7323 189.627 82.1829 189.282 82.7479L188.244 81.8197C188.616 81.1607 189.182 80.6092 189.94 80.1653C190.712 79.7214 191.703 79.4995 192.913 79.4995C194.523 79.4995 195.767 80.0106 196.645 81.0329C197.536 82.0417 197.982 83.4473 197.982 85.2497C197.982 86.124 197.875 86.9176 197.663 87.6305C197.45 88.3434 197.13 88.9487 196.705 89.4464C196.292 89.9441 195.773 90.3275 195.148 90.5965C194.536 90.8655 193.825 91 193.013 91Z" fill="#F7F8FC"/>
<path d="M205.315 91C203.905 91 202.795 90.6167 201.983 89.8499C201.172 89.0698 200.766 88.0072 200.766 86.6621V79.7416H202.362V86.5007C202.362 87.5095 202.622 88.2829 203.14 88.821C203.673 89.3455 204.398 89.6078 205.315 89.6078C206.233 89.6078 206.952 89.3455 207.471 88.821C208.003 88.2829 208.269 87.5095 208.269 86.5007V79.7416H209.865V86.6621C209.865 88.0072 209.459 89.0698 208.648 89.8499C207.836 90.6167 206.726 91 205.315 91Z" fill="#F7F8FC"/>
<path d="M214.14 84.4629L212.444 83.7365C212.483 83.1178 212.63 82.5528 212.883 82.0417C213.149 81.5171 213.494 81.0665 213.92 80.6899C214.346 80.3132 214.838 80.0241 215.397 79.8223C215.969 79.6071 216.587 79.4995 217.253 79.4995C218.809 79.4995 220 79.8963 220.825 80.6899C221.649 81.47 222.062 82.5326 222.062 83.8777V90.7579H220.465V84.0795C220.465 83.0303 220.173 82.2367 219.587 81.6987C219.015 81.1607 218.257 80.8916 217.312 80.8916C216.9 80.8916 216.508 80.9454 216.135 81.053C215.776 81.1472 215.45 81.2884 215.157 81.4767C214.865 81.6516 214.612 81.8736 214.399 82.1426C214.186 82.3981 214.033 82.6873 213.94 83.0102L214.938 83.4137C215.217 83.5213 215.417 83.6625 215.537 83.8374C215.67 83.9988 215.736 84.2275 215.736 84.5234V90.7579H214.14V84.4629Z" fill="#F7F8FC"/>
<path d="M220.391 77.5827C219.792 77.5827 219.353 77.4347 219.073 77.1388C218.794 76.8429 218.654 76.4528 218.654 75.9686V74.7177H220.251V76.1905H225.339V77.5827H220.391Z" fill="#F7F8FC"/>
<path d="M229.811 91C228.401 91 227.29 90.6167 226.478 89.8499C225.667 89.0698 225.261 88.0072 225.261 86.6621V79.7416H226.857V86.5007C226.857 87.5095 227.117 88.2829 227.636 88.821C228.168 89.3455 228.893 89.6078 229.811 89.6078C230.729 89.6078 231.447 89.3455 231.966 88.821C232.498 88.2829 232.764 87.5095 232.764 86.5007V79.7416H234.36V86.6621C234.36 88.0072 233.955 89.0698 233.143 89.8499C232.332 90.6167 231.221 91 229.811 91Z" fill="#F7F8FC"/>
<path d="M251.552 88.6999H251.492C251.319 89.359 250.894 89.9105 250.215 90.3544C249.55 90.7848 248.685 91 247.621 91C246.77 91 245.985 90.8453 245.266 90.5359C244.561 90.2131 243.956 89.7491 243.451 89.1438C242.945 88.525 242.546 87.7651 242.253 86.8638C241.974 85.9492 241.834 84.9 241.834 83.7163C241.834 82.5461 241.974 81.5104 242.253 80.6092C242.533 79.6945 242.932 78.9345 243.451 78.3292C243.969 77.7105 244.595 77.2397 245.326 76.9169C246.058 76.5941 246.869 76.4327 247.761 76.4327C249.011 76.4327 250.056 76.7151 250.894 77.2801C251.732 77.845 252.377 78.5915 252.829 79.5196L251.452 80.367C251.133 79.6138 250.654 79.022 250.016 78.5915C249.39 78.1611 248.639 77.9459 247.761 77.9459C247.149 77.9459 246.59 78.0602 246.085 78.2889C245.579 78.5041 245.14 78.8135 244.768 79.217C244.408 79.6205 244.129 80.1048 243.929 80.6697C243.73 81.2346 243.63 81.8668 243.63 82.5663V84.8462C243.63 85.5457 243.73 86.1846 243.929 86.763C244.129 87.3279 244.408 87.8121 244.768 88.2157C245.14 88.6192 245.592 88.9353 246.125 89.1639C246.657 89.3792 247.255 89.4868 247.92 89.4868C248.399 89.4868 248.852 89.4262 249.277 89.3052C249.716 89.1707 250.095 88.9756 250.415 88.7201C250.747 88.4645 251.007 88.1484 251.193 87.7718C251.379 87.3817 251.472 86.9244 251.472 86.3998V85.0076H248.399V83.5146H253.109V90.7579H251.552V88.6999Z" fill="#F7F8FC"/>
<path d="M257.984 76.6748V85.391C257.984 86.7361 258.23 87.7583 258.722 88.4578C259.214 89.1438 260.079 89.4868 261.316 89.4868C262.553 89.4868 263.418 89.1438 263.91 88.4578C264.403 87.7583 264.649 86.7361 264.649 85.391V76.6748H266.325V84.9874C266.325 86.0097 266.232 86.8975 266.046 87.6507C265.873 88.404 265.587 89.0294 265.188 89.5271C264.788 90.0248 264.263 90.3947 263.611 90.6368C262.973 90.8789 262.188 91 261.256 91C260.325 91 259.54 90.8789 258.902 90.6368C258.277 90.3947 257.771 90.0248 257.385 89.5271C256.999 89.0294 256.72 88.404 256.547 87.6507C256.387 86.8975 256.308 86.0097 256.308 84.9874V76.6748H257.984Z" fill="#F7F8FC"/>
<path d="M271.608 90.7579H269.931V76.6748H275.479C276.703 76.6748 277.654 77.0178 278.332 77.7038C279.024 78.3898 279.37 79.3784 279.37 80.6697C279.37 81.7054 279.131 82.5595 278.652 83.2321C278.186 83.8912 277.494 84.3283 276.576 84.5436L279.769 90.7579H277.873L274.86 84.705H271.608V90.7579ZM275.479 83.2523C276.144 83.2523 276.656 83.0774 277.015 82.7277C277.388 82.378 277.574 81.8803 277.574 81.2346V80.1855C277.574 79.5398 277.388 79.0421 277.015 78.6924C276.656 78.3427 276.144 78.1678 275.479 78.1678H271.608V83.2523H275.479Z" fill="#F7F8FC"/>
<path d="M284.038 76.6748V85.391C284.038 86.7361 284.284 87.7583 284.776 88.4578C285.269 89.1438 286.133 89.4868 287.371 89.4868C288.608 89.4868 289.472 89.1438 289.965 88.4578C290.457 87.7583 290.703 86.7361 290.703 85.391V76.6748H292.379V84.9874C292.379 86.0097 292.286 86.8975 292.1 87.6507C291.927 88.404 291.641 89.0294 291.242 89.5271C290.843 90.0248 290.317 90.3947 289.665 90.6368C289.027 90.8789 288.242 91 287.311 91C286.379 91 285.595 90.8789 284.956 90.6368C284.331 90.3947 283.825 90.0248 283.439 89.5271C283.054 89.0294 282.774 88.404 282.601 87.6507C282.442 86.8975 282.362 86.0097 282.362 84.9874V76.6748H284.038Z" fill="#F7F8FC"/>
<path d="M309.422 90.7579L308.025 86.6015H302.398L301.001 90.7579H299.305L304.174 76.6748H306.309L311.178 90.7579H309.422ZM305.251 78.2485H305.151L302.797 85.1085H307.606L305.251 78.2485Z" fill="#F7F8FC"/>
<path d="M318.102 91C316.332 91 314.955 90.3947 313.971 89.1841C312.987 87.9601 312.494 86.1644 312.494 83.797C312.494 81.4297 312.987 79.6138 313.971 78.3494C314.955 77.0716 316.332 76.4327 318.102 76.4327C319.272 76.4327 320.25 76.7017 321.035 77.2397C321.833 77.7777 322.452 78.5377 322.891 79.5196L321.534 80.3469C321.254 79.6205 320.829 79.0421 320.257 78.6117C319.685 78.1678 318.966 77.9459 318.102 77.9459C317.503 77.9459 316.964 78.0602 316.485 78.2889C316.02 78.5175 315.621 78.8471 315.288 79.2775C314.969 79.6945 314.723 80.1989 314.55 80.7908C314.377 81.3691 314.29 82.0215 314.29 82.7479V84.8462C314.29 86.2989 314.623 87.4355 315.288 88.256C315.953 89.0765 316.891 89.4868 318.102 89.4868C318.993 89.4868 319.738 89.2581 320.337 88.8008C320.935 88.33 321.374 87.7113 321.654 86.9445L322.991 87.792C322.552 88.7873 321.92 89.5742 321.095 90.1526C320.27 90.7175 319.272 91 318.102 91Z" fill="#F7F8FC"/>
<path d="M334.307 90.7579L332.91 86.6015H327.283L325.886 90.7579H324.19L329.059 76.6748H331.194L336.063 90.7579H334.307ZM330.136 78.2485H330.036L327.682 85.1085H332.491L330.136 78.2485Z" fill="#F7F8FC"/>
<path d="M338.37 76.6748H343.039C343.904 76.6748 344.689 76.8227 345.394 77.1186C346.099 77.4146 346.698 77.8584 347.19 78.4503C347.696 79.0287 348.081 79.7618 348.347 80.6495C348.613 81.5238 348.747 82.5461 348.747 83.7163C348.747 84.8866 348.613 85.9156 348.347 86.8033C348.081 87.6776 347.696 88.4107 347.19 89.0025C346.698 89.5809 346.099 90.0181 345.394 90.314C344.689 90.6099 343.904 90.7579 343.039 90.7579H338.37V76.6748ZM343.039 89.2648C343.611 89.2648 344.137 89.1707 344.616 88.9824C345.095 88.7806 345.507 88.4914 345.853 88.1148C346.199 87.7382 346.465 87.2808 346.651 86.7428C346.851 86.1913 346.951 85.5658 346.951 84.8664V82.5663C346.951 81.8668 346.851 81.2481 346.651 80.71C346.465 80.1586 346.199 79.6945 345.853 79.3179C345.507 78.9412 345.095 78.6588 344.616 78.4705C344.137 78.2687 343.611 78.1678 343.039 78.1678H340.046V89.2648H343.039Z" fill="#F7F8FC"/>
<path d="M351.758 90.7579V76.6748H360.258V78.1678H353.434V82.8891H359.859V84.3821H353.434V89.2648H360.258V90.7579H351.758Z" fill="#F7F8FC"/>
<path d="M374.247 78.8942H374.147L372.97 81.2548L369.637 87.3884L366.305 81.2548L365.128 78.8942H365.028V90.7579H363.391V76.6748H365.626L369.617 84.2611H369.717L373.728 76.6748H375.883V90.7579H374.247V78.8942Z" fill="#F7F8FC"/>
<path d="M382.778 90.7579V85.1892L377.989 76.6748H379.904L383.616 83.454H383.676L387.387 76.6748H389.303L384.454 85.1287V90.7579H382.778Z" fill="#F7F8FC"/>
<defs>
<radialGradient id="paint0_radial_681_4224" cx="0" cy="0" r="1" gradientUnits="userSpaceOnUse" gradientTransform="translate(233.529 111.001) scale(140.892 17.2752)">
<stop stop-color="#221F1F"/>
<stop offset="1" stop-color="#221F1F" stop-opacity="0"/>
</radialGradient>
<linearGradient id="paint1_linear_681_4224" x1="49" y1="59.5" x2="434" y2="59.9253" gradientUnits="userSpaceOnUse">
<stop stop-color="#CDA64E"/>
<stop offset="0.237139" stop-color="#EACD85"/>
<stop offset="0.510417" stop-color="#D1A954"/>
<stop offset="0.801131" stop-color="#E0B75C"/>
<stop offset="1" stop-color="#CAA34C"/>
</linearGradient>
</defs>
</svg>
